PathFileType	4	(X/Y/Z)	/home/abdul/Desktop/myosuite/custom_workspace/IK/output/S3_12_1.trc
DataRate	CameraRate	NumFrames	NumMarkers	Units	OrigDataRate	OrigDataStartFrame	OrigNumFrames
200.0	200.0	61	3	mm	200.0	394	786
Frame#	Time	V_Shoulder			V_Elbow			V_Wrist		
		X1	Y1	Z1	X2	Y2	Z2	X3	Y3	Z3

394	1.965	-118.48764736362706	661.8459893791639	325.6241293705804	-347.6715391227474	439.8559294730368	154.36890707285332	-112.02729891434373	400.99777274163233	320.80931314081465
395	1.97	-118.5041140553933	662.0106992316161	325.641635191932	-347.69397006030124	439.91249503199765	154.60478370797284	-112.14032470625557	401.09003953428197	321.15786986082264
396	1.975	-118.51997913903487	662.174271841943	325.65913853876606	-347.7158527673368	439.97178278772424	154.83452179287815	-112.25460726768156	401.16732752685857	321.49776146972965
397	1.98	-118.53520451716652	662.3366006872253	325.6766446525731	-347.7372534510535	440.0336484822285	155.05821996256182	-112.3700160856919	401.23069293053436	321.82913210147734
398	1.985	-118.54975301825944	662.497580228388	325.694158353758	-347.75822936253473	440.0979410491028	155.27597602982817	-112.48641515244276	401.28118802633855	322.1521364400272
399	1.99	-118.56358850112697	662.6571061930699	325.7116840307145	-347.77882870379574	440.1645032113422	155.48788654802922	-112.60366374224874	401.3198557655091	322.4669391439988
400	1.995	-118.57667595631398	662.8150758451696	325.729225631542	-347.7990905901851	440.2331721141836	155.69404638301526	-112.72161720148759	401.34772439575937	322.7737141876376
401	2.0	-118.58898160406302	662.9713882404126	325.7467866583229	-347.8190450679057	440.3037799903184	155.8945482953671	-112.84012774670168	401.36580214280616	323.0726441197836
402	2.005	-118.6004729885462	663.1259444673541	325.7643701638563	-347.8387131860801	440.37615485464664	156.0894825338936	-112.95904526618882	401.37507197641884	323.3639192428798
403	2.01	-118.61111906806605	663.2786478733152	325.7819787507249	-347.85810712244887	440.45012122556284	156.2789364412951	-113.07821812033418	401.37648648998004	323.64773671443277
404	2.015	-118.62089030094701	663.4294042748187	325.7996145725499	-347.87723036145934	440.52550086961054	156.46299407280597	-113.19749393592714	401.37096292209617	323.92429957371263
405	2.02	-118.62975872685736	663.5781221521769	325.81727933727416	-347.8960779231814	440.6021135661995	156.64173582854232	-113.31672038973028	401.35937834816855	324.1938156968532
406	2.025	-118.63769804332044	663.7247128279582	325.8349743122908	-347.9146366411734	440.6797778889652	156.81523810019274	-113.43574597662834	401.34256506902716	324.45649668389075
407	2.03	-118.64468367719466	663.8690906291366	325.85270033122384	-347.9328854871236	440.75831200024743	156.98357293260193	-113.55442075777796	401.32130622274906	324.7125566816468
408	2.035	-118.65069285092294	664.011173032809	325.8704578021481	-347.9507959398094	440.8375344550884	157.14680770070822	-113.67259708430862	401.29633164463644	324.96221114672863
409	2.04	-118.65570464337402	664.1508807954391	325.88824671702565	-347.9683323956481	440.9172650110919	157.305004802211	-113.79013029228986	401.2683139990197	325.20567555327693
410	2.045	-118.65970004512097	664.2881380656614	325.9060666621213	-347.9854526178663	440.9973254404496	157.4582213662564	-113.90687936487734	401.23786520508804	325.4431640504373
411	2.05	-118.66266200802511	664.422872480754	325.9239168291527	-348.0021082210852	441.07754034042176	157.60650897834975	-114.02270755778233	401.205533177344	325.67488807486626
412	2.055	-118.6645754890176	664.5550152469556	325.9417960269184	-348.0182451879139	441.15773793856727	157.7499134216204	-114.13748298447187	401.17179889953945	325.90105492389944
413	2.06	-118.66542748799434	664.6845012038787	325.9597026931463	-348.0338044139597	441.23775088904324	157.88847443448947	-114.2510791577991	401.13707384908287	326.121866295308
414	2.065	-118.6652070797647	664.8112688733239	325.9776349062934	-348.0487222775042	441.3174170563384	158.0222254847174	-114.36337548508254	401.10169778693864	326.3375167998473
415	2.07	-118.663905440019	664.9352604928744	325.9955903970309	-348.06293122996254	441.39658028287056	158.1511935597391	-114.47425771399698	401.06593692595936	326.5481924530527
416	2.075	-118.66151586530292	665.0564220347018	326.0135665591462	-348.07636040313247	441.4750911369627	158.27539897313218	-114.58361832700348	401.02998248843886	326.7540691529631
417	2.08	-118.65803378701331	665.1747032100685	326.0315604595925	-348.088936229163	441.55280763781207	158.39485518700258	-114.69135688242963	400.99394966144064	326.95531115064773
418	2.085	-118.6534567794518	665.2900574600671	326.0495688474246	-348.10058306911367	441.6295959541865	158.50956865002294	-114.79738030070922	400.95787695617264	327.1520695205743
419	2.09	-118.64778456199802	665.4024419331789	326.06758816136045	-348.1112238459526	441.7053310737167	158.61953865080883	-114.90160309469984	400.9217259753496	327.3444806379863
420	2.095	-118.6410189954867	665.5118174502785	326.08561453571934	-348.12078067783864	441.779897439801	158.72475718628056	-115.00394754341481	400.88538159013075	327.5326646705487
421	2.1	-118.63316407289564	665.618148457748	326.10364380449437	-348.1291755075629	441.8531895533022	158.82520884462434	-115.10434380892661	400.84865252585297	327.71672409157884
422	2.105	-118.6242259044745	665.7214029693963	326.12167150332994	-348.13633072407583	441.92511253638963	158.92087070244082	-115.20272999662183	400.8112723534166	327.89674222219355
423	2.11	-118.61421269746434	665.8215524979076	326.1396928691875	-348.14216977210623	441.99558265606674	159.01171223565098	-115.29905215940676	400.7729008808366	328.07278180968376
424	2.115	-118.6031347305799	665.9185719765666	326.1577028375005	-348.14661774598414	442.06452780511654	159.09769524371927	-115.39326424687576	400.73312593716133	328.24488364936303
425	2.12	-118.5910043234443	666.0124396720238	326.17569603663156	-348.1496019639065	442.1318879384021	159.1787737867505	-115.48532800085829	400.69146553869865	328.4130652570377
426	2.125	-118.5778358011861	666.1031370888826	326.1936667794705	-348.1510525190374	442.1976154626675	159.25489413502277	-115.57521279915164	400.6473704252892	328.577319599104
427	2.13	-118.56364545442437	666.1906488668902	326.21160905202515	-348.1509028040088	442.26167557819815	159.32599473053244	-115.66289544962179	400.60022695224495	328.7376138870976
428	2.135	-118.54845149488465	666.2749626715278	326.22951649888597	-348.14909000557935	442.32404657092036	159.39200616014762	-115.74835993721135	400.549360321539	328.8938884433059
429	2.14	-118.53227400690224	666.3560690787846	326.247382405462	-348.14555556642574	442.38472005373876	159.4528511399962	-115.83159712673145	400.4940381339016	329.0460556437984
430	2.145	-118.51513489508427	666.433961454904	326.26519967691473	-348.14024561126894	442.44370115613447	159.50844451075207	-115.91260442462547	400.4334742416695	329.1939989449445
431	2.15	-118.49705782841168	666.5086358318727	326.28296081374054	-348.1331113347866	442.5010086612666	159.55869324352565	-115.99138540318253	400.3668328805435	329.3375719991669
432	2.155	-118.47806818107442	666.5800907794165	326.30065788397894	-348.1241093490229	442.5566750900434	159.60349645611876	-116.06794939093828	400.2932330568646	329.4765978653289
433	2.16	-118.45819297034143	666.6483272742429	326.31828249205006	-348.1132019882814	442.6107467318481	159.64274543946058	-116.14231103323318	400.2117531656162	329.61086831877356
434	2.165	-118.43746079177366	666.7133485672499	326.3358257442553	-348.10035756977	442.66328362181844	159.67632369410666	-116.21448982710054	400.1214358131139	329.74014326562906
435	2.17	-118.41590175209478	666.7751600494017	326.3532782110017	-348.0855506085612	442.7143594647929	159.70410697675433	-116.2845096348272	400.0212928172631	329.8641502655662
436	2.175	-118.3935474000375	666.8337691169332	326.3706298858389	-348.06876198573144	442.7640615062405	159.7259633568027	-116.3523981806681	399.9103103573518	329.9825841667415
437	2.18	-118.370430655486	666.8891850365249	326.38787014142946	-348.04997906884694	442.8124903506944	159.7417532830671	-116.41818653530115	399.7874542446118	330.09510685619614
438	2.185	-118.34658573723539	666.9414188110451	326.40498768259647	-348.0291957842761	442.8597597283996	159.75132966084115	-116.48190859268085	399.6516752842198	330.20134712849193
439	2.19	-118.32204808968793	666.990483046431	326.4219704966278	-348.0064126411139	442.905996211074	159.75453793958934	-116.5436005439856	399.50191469903837	330.300900674873
440	2.195	-118.29685430880323	667.036391820233	326.43880580103934	-347.98163670681834	442.9513388778596	159.7512162116412	-116.6033003533573	399.3371095852042	330.3933301947295
441	2.2	-118.2710420676148	667.079160552313	326.455479989029	-347.9548815349632	442.9959389327099	159.74119532235085	-116.66104724009966	399.15619836966255	330.4781656306259
442	2.205	-118.24465004161965	667.1188058781427	326.4719785728799	-347.9261670458187	443.03995927462205	159.72429899227717	-116.7168811719361	398.95812623992464	330.5549045276308
443	2.21	-118.2177178343402	667.1553455251072	326.4882861255979	-347.89551936076623	443.0835740222741	159.70034395203135	-116.77084237382644	398.7418505166789	330.62301251715945
444	2.215	-118.19028590334828	667.1887981921757	326.50438622109107	-347.86297059184676	443.1269679947692	159.66914009052854	-116.82297085670871	398.50634594042043	330.6819239250079
445	2.22	-118.16239548703072	667.2191834332581	326.52026137322514	-347.82855858802503	443.1703361503239	159.63049061746648	-116.87330597036237	398.2506098439693	330.7310425027305
446	2.225	-118.13408853236383	667.2465215445222	326.53589297410684	-347.79232664002035	443.2138829848618	159.58419224093763	-116.92188598439057	397.973667183618	330.76974228098186
447	2.23	-118.10540762395156	667.2708334559042	326.551261231973	-347.75432314581565	443.25782189258547	159.53003536115835	-116.96874770108442	397.67457540268094	330.7973685429198
448	2.235	-118.07639591456666	667.2921406270002	326.56634510907537	-347.7146012392027	443.3023744907092	159.46780428136904	-117.01392610366972	397.35242910239987	330.8132389152452
449	2.24	-118.04709705741932	667.3104649474877	326.5811222599738	-347.67321838395003	443.34776991062694	159.39727743702346	-117.05745404314234	397.0063644964822	330.816644573943
450	2.245	-118.01755514036124	667.3258286421807	326.59556897066096	-347.6302359363974	443.3942440578792	159.31822764443746	-117.0993619665771	396.63556362700695	330.806851561282
451	2.25	-117.98781462221439	667.3382541807881	326.6096600989564	-347.58571867947455	443.44203884336	159.23042237011202	-117.13967768944585	396.23925832100844	330.78310221013857
452	2.255	-117.95792027139703	667.3477641924004	326.623369016617	-347.5397343313229	443.49140138827386	159.13362402197674	-117.17842621410779	395.81673386873865	330.7446166712264
453	2.26	-117.92791710699885	667.3543813846999	326.6366675536196	-347.49235303185486	443.54258320541226	159.0275902638167	-117.21562959623796	395.36733240639484	330.6905945383469
454	2.265	-117.89785034243836	667.3581284678498	326.64952594507616	-347.4436468107258	443.5958393593755	158.91207435415197	-117.25130686054382	394.89045598797	330.62021656632385
